<svg xmlns="http://www.w3.org/2000/svg" id="export" class="canvas" preserveAspectRatio="xMidYMid meet" style="" width="341" height="665"><rect id="background" fill="#fff" pointer-events="all" width="341" height="665"/><g id="origin" transform="translate(15.458280944824219, 15.458280944824219) scale(1)"><g id="clusters" class="clusters"/><g id="edge-paths" class="edge-paths"><defs><marker id="arrowhead" viewBox="0 0 10 10" refX="9" refY="5" markerUnits="strokeWidth" markerWidth="8" markerHeight="6" orient="auto" style="fill: rgb(0, 0, 0);"><path d="M 0 0 L 10 5 L 0 10 L 4 5 z" style="stroke-width: 1;"/></marker><marker id="arrowhead-select" viewBox="0 0 10 10" refX="9" refY="5" markerUnits="strokeWidth" markerWidth="8" markerHeight="6" orient="auto" style="fill: rgb(238, 0, 0);"><path d="M 0 0 L 10 5 L 0 10 L 4 5 z" style="stroke-width: 1;"/></marker><marker id="arrowhead-hover" viewBox="0 0 10 10" refX="9" refY="5" markerUnits="strokeWidth" markerWidth="8" markerHeight="6" orient="auto"><path d="M 0 0 L 10 5 L 0 10 L 4 5 z" style="stroke-width: 1;"/></marker></defs><path id="edge-serving_default_args_0:0&#10;0" class="edge-path" d="M189.94921875,20L198.41861979166666,21.666666666666668C206.88802083333334,23.333333333333332,223.82682291666666,26.666666666666668,232.29622395833334,34.166666666666664C240.765625,41.666666666666664,240.765625,53.333333333333336,240.765625,65C240.765625,76.66666666666667,240.765625,88.33333333333333,240.765625,95.83333333333333C240.765625,103.33333333333333,240.765625,106.66666666666667,240.765625,108.33333333333333L240.765625,110" style="stroke: rgb(0, 0, 0); stroke-width: 1px; fill: none; marker-end: url(&quot;#arrowhead&quot;);"/><path class="edge-path-hit-test" d="M189.94921875,20L198.41861979166666,21.666666666666668C206.88802083333334,23.333333333333332,223.82682291666666,26.666666666666668,232.29622395833334,34.166666666666664C240.765625,41.666666666666664,240.765625,53.333333333333336,240.765625,65C240.765625,76.66666666666667,240.765625,88.33333333333333,240.765625,95.83333333333333C240.765625,103.33333333333333,240.765625,106.66666666666667,240.765625,108.33333333333333L240.765625,110" style="pointer-events: stroke; stroke-width: 0.5em; fill: none; stroke: rgb(0, 0, 0); stroke-opacity: 0.001;"/><path id="edge-serving_default_args_0:0&#10;0" class="edge-path" d="M88.31640625,20L79.84700520833333,21.666666666666668C71.37760416666667,23.333333333333332,54.438802083333336,26.666666666666668,45.969401041666664,34.166666666666664C37.5,41.666666666666664,37.5,53.333333333333336,37.5,65C37.5,76.66666666666667,37.5,88.33333333333333,37.5,101C37.5,113.66666666666667,37.5,127.33333333333333,37.5,142.75C37.5,158.16666666666666,37.5,175.33333333333334,37.5,191.5C37.5,207.66666666666666,37.5,222.83333333333334,37.5,238C37.5,253.16666666666666,37.5,268.3333333333333,37.5,279.3333333333333C37.5,290.3333333333333,37.5,297.1666666666667,37.5,300.5833333333333L37.5,304" style="stroke: rgb(0, 0, 0); stroke-width: 1px; fill: none; marker-end: url(&quot;#arrowhead&quot;);"/><path class="edge-path-hit-test" d="M88.31640625,20L79.84700520833333,21.666666666666668C71.37760416666667,23.333333333333332,54.438802083333336,26.666666666666668,45.969401041666664,34.166666666666664C37.5,41.666666666666664,37.5,53.333333333333336,37.5,65C37.5,76.66666666666667,37.5,88.33333333333333,37.5,101C37.5,113.66666666666667,37.5,127.33333333333333,37.5,142.75C37.5,158.16666666666666,37.5,175.33333333333334,37.5,191.5C37.5,207.66666666666666,37.5,222.83333333333334,37.5,238C37.5,253.16666666666666,37.5,268.3333333333333,37.5,279.3333333333333C37.5,290.3333333333333,37.5,297.1666666666667,37.5,300.5833333333333L37.5,304" style="pointer-events: stroke; stroke-width: 0.5em; fill: none; stroke: rgb(0, 0, 0); stroke-opacity: 0.001;"/><path id="edge-model/tf.__operators__.getitem/strided_slice&#10;10" class="edge-path" d="M240.765625,172L240.765625,175.41666666666666C240.765625,178.83333333333334,240.765625,185.66666666666666,240.765625,195C240.765625,204.33333333333334,240.765625,216.16666666666666,240.765625,222.08333333333334L240.765625,228" style="stroke: rgb(0, 0, 0); stroke-width: 1px; fill: none; marker-end: url(&quot;#arrowhead&quot;);"/><path class="edge-path-hit-test" d="M240.765625,172L240.765625,175.41666666666666C240.765625,178.83333333333334,240.765625,185.66666666666666,240.765625,195C240.765625,204.33333333333334,240.765625,216.16666666666666,240.765625,222.08333333333334L240.765625,228" style="pointer-events: stroke; stroke-width: 0.5em; fill: none; stroke: rgb(0, 0, 0); stroke-opacity: 0.001;"/><path id="edge-model/tf.nn.relu/Relu1&#10;11" class="edge-path" d="M240.765625,248L240.765625,253.91666666666666C240.765625,259.8333333333333,240.765625,271.6666666666667,240.765625,281C240.765625,290.3333333333333,240.765625,297.1666666666667,240.765625,300.5833333333333L240.765625,304" style="stroke: rgb(0, 0, 0); stroke-width: 1px; fill: none; marker-end: url(&quot;#arrowhead&quot;);"/><path class="edge-path-hit-test" d="M240.765625,248L240.765625,253.91666666666666C240.765625,259.8333333333333,240.765625,271.6666666666667,240.765625,281C240.765625,290.3333333333333,240.765625,297.1666666666667,240.765625,300.5833333333333L240.765625,304" style="pointer-events: stroke; stroke-width: 0.5em; fill: none; stroke: rgb(0, 0, 0); stroke-opacity: 0.001;"/><path id="edge-model/tf.nn.relu/Relu2&#10;12" class="edge-path" d="M240.765625,342L240.765625,345.4166666666667C240.765625,348.8333333333333,240.765625,355.6666666666667,240.765625,362.5C240.765625,369.3333333333333,240.765625,376.1666666666667,240.765625,379.5833333333333L240.765625,383" style="stroke: rgb(0, 0, 0); stroke-width: 1px; fill: none; marker-end: url(&quot;#arrowhead&quot;);"/><path class="edge-path-hit-test" d="M240.765625,342L240.765625,345.4166666666667C240.765625,348.8333333333333,240.765625,355.6666666666667,240.765625,362.5C240.765625,369.3333333333333,240.765625,376.1666666666667,240.765625,379.5833333333333L240.765625,383" style="pointer-events: stroke; stroke-width: 0.5em; fill: none; stroke: rgb(0, 0, 0); stroke-opacity: 0.001;"/><path id="edge-model/tf.compat.v1.transpose_1/transpose1&#10;13" class="edge-path" d="M37.5,342L37.5,345.4166666666667C37.5,348.8333333333333,37.5,355.6666666666667,43.676739926739934,365C49.853479853479854,374.3333333333333,62.20695970695971,386.1666666666667,68.38369963369964,392.0833333333333L74.56043956043956,398" style="stroke: rgb(0, 0, 0); stroke-width: 1px; fill: none; marker-end: url(&quot;#arrowhead&quot;);"/><path class="edge-path-hit-test" d="M37.5,342L37.5,345.4166666666667C37.5,348.8333333333333,37.5,355.6666666666667,43.676739926739934,365C49.853479853479854,374.3333333333333,62.20695970695971,386.1666666666667,68.38369963369964,392.0833333333333L74.56043956043956,398" style="pointer-events: stroke; stroke-width: 0.5em; fill: none; stroke: rgb(0, 0, 0); stroke-opacity: 0.001;"/><path id="edge-model/tf.tensor_scatter_nd_update/TensorScatterUpdate2&#10;14" class="edge-path" d="M132.5,90L132.5,91.66666666666667C132.5,93.33333333333333,132.5,96.66666666666667,132.5,105.16666666666667C132.5,113.66666666666667,132.5,127.33333333333333,132.5,142.75C132.5,158.16666666666666,132.5,175.33333333333334,132.5,187.33333333333334C132.5,199.33333333333334,132.5,206.16666666666666,132.5,209.58333333333334L132.5,213" style="stroke: rgb(0, 0, 0); stroke-width: 1px; fill: none; marker-end: url(&quot;#arrowhead&quot;);"/><path class="edge-path-hit-test" d="M132.5,90L132.5,91.66666666666667C132.5,93.33333333333333,132.5,96.66666666666667,132.5,105.16666666666667C132.5,113.66666666666667,132.5,127.33333333333333,132.5,142.75C132.5,158.16666666666666,132.5,175.33333333333334,132.5,187.33333333333334C132.5,199.33333333333334,132.5,206.16666666666666,132.5,209.58333333333334L132.5,213" style="pointer-events: stroke; stroke-width: 0.5em; fill: none; stroke: rgb(0, 0, 0); stroke-opacity: 0.001;"/><path id="edge-model/tf.compat.v1.transpose_1/transpose2&#10;15" class="edge-path" d="M132.5,263L132.5,266.4166666666667C132.5,269.8333333333333,132.5,276.6666666666667,132.5,283.5C132.5,290.3333333333333,132.5,297.1666666666667,132.5,300.5833333333333L132.5,304" style="stroke: rgb(0, 0, 0); stroke-width: 1px; fill: none; marker-end: url(&quot;#arrowhead&quot;);"/><path class="edge-path-hit-test" d="M132.5,263L132.5,266.4166666666667C132.5,269.8333333333333,132.5,276.6666666666667,132.5,283.5C132.5,290.3333333333333,132.5,297.1666666666667,132.5,300.5833333333333L132.5,304" style="pointer-events: stroke; stroke-width: 0.5em; fill: none; stroke: rgb(0, 0, 0); stroke-opacity: 0.001;"/><path id="edge-model/tf.tensor_scatter_nd_update/TensorScatterUpdate3&#10;16" class="edge-path" d="M132.5,342L132.5,345.4166666666667C132.5,348.8333333333333,132.5,355.6666666666667,126.32326007326007,365C120.14652014652013,374.3333333333333,107.79304029304029,386.1666666666667,101.61630036630036,392.0833333333333L95.43956043956044,398" style="stroke: rgb(0, 0, 0); stroke-width: 1px; fill: none; marker-end: url(&quot;#arrowhead&quot;);"/><path class="edge-path-hit-test" d="M132.5,342L132.5,345.4166666666667C132.5,348.8333333333333,132.5,355.6666666666667,126.32326007326007,365C120.14652014652013,374.3333333333333,107.79304029304029,386.1666666666667,101.61630036630036,392.0833333333333L95.43956043956044,398" style="pointer-events: stroke; stroke-width: 0.5em; fill: none; stroke: rgb(0, 0, 0); stroke-opacity: 0.001;"/><path id="edge-model/tf.tensor_scatter_nd_update/TensorScatterUpdate4&#10;17" class="edge-path" d="M85,418L85,423.9166666666667C85,429.8333333333333,85,441.6666666666667,91.1796875,451.0651488911339C97.359375,460.4636311156011,109.71875,467.4272622312022,115.8984375,470.90907778900277L122.078125,474.3908933468033" style="stroke: rgb(0, 0, 0); stroke-width: 1px; fill: none; marker-end: url(&quot;#arrowhead&quot;);"/><path class="edge-path-hit-test" d="M85,418L85,423.9166666666667C85,429.8333333333333,85,441.6666666666667,91.1796875,451.0651488911339C97.359375,460.4636311156011,109.71875,467.4272622312022,115.8984375,470.90907778900277L122.078125,474.3908933468033" style="pointer-events: stroke; stroke-width: 0.5em; fill: none; stroke: rgb(0, 0, 0); stroke-opacity: 0.001;"/><path id="edge-model/tf.compat.v1.transpose_1/transpose3&#10;18" class="edge-path" d="M240.765625,433L240.765625,436.4166666666667C240.765625,439.8333333333333,240.765625,446.6666666666667,226.66927083333334,454.3136482435237C212.57291666666666,461.96062982038075,184.38020833333334,470.4212596407615,170.28385416666666,474.65157455095186L156.1875,478.8818894611423" style="stroke: rgb(0, 0, 0); stroke-width: 1px; fill: none; marker-end: url(&quot;#arrowhead&quot;);"/><path class="edge-path-hit-test" d="M240.765625,433L240.765625,436.4166666666667C240.765625,439.8333333333333,240.765625,446.6666666666667,226.66927083333334,454.3136482435237C212.57291666666666,461.96062982038075,184.38020833333334,470.4212596407615,170.28385416666666,474.65157455095186L156.1875,478.8818894611423" style="pointer-events: stroke; stroke-width: 0.5em; fill: none; stroke: rgb(0, 0, 0); stroke-opacity: 0.001;"/><path id="edge-model/tf.tensor_scatter_nd_update/TensorScatterUpdate5&#10;19" class="edge-path" d="M139.1328125,494L139.1328125,497.4166666666667C139.1328125,500.8333333333333,139.1328125,507.6666666666667,139.1328125,514.5C139.1328125,521.3333333333334,139.1328125,528.1666666666666,139.1328125,531.5833333333334L139.1328125,535" style="stroke: rgb(0, 0, 0); stroke-width: 1px; fill: none; marker-end: url(&quot;#arrowhead&quot;);"/><path class="edge-path-hit-test" d="M139.1328125,494L139.1328125,497.4166666666667C139.1328125,500.8333333333333,139.1328125,507.6666666666667,139.1328125,514.5C139.1328125,521.3333333333334,139.1328125,528.1666666666666,139.1328125,531.5833333333334L139.1328125,535" style="pointer-events: stroke; stroke-width: 0.5em; fill: none; stroke: rgb(0, 0, 0); stroke-opacity: 0.001;"/><path id="edge-PartitionedCall:0&#10;20" class="edge-path" d="M139.1328125,573L139.1328125,576.4166666666666C139.1328125,579.8333333333334,139.1328125,586.6666666666666,139.1328125,593.5C139.1328125,600.3333333333334,139.1328125,607.1666666666666,139.1328125,610.5833333333334L139.1328125,614" style="stroke: rgb(0, 0, 0); stroke-width: 1px; fill: none; marker-end: url(&quot;#arrowhead&quot;);"/><path class="edge-path-hit-test" d="M139.1328125,573L139.1328125,576.4166666666666C139.1328125,579.8333333333334,139.1328125,586.6666666666666,139.1328125,593.5C139.1328125,600.3333333333334,139.1328125,607.1666666666666,139.1328125,610.5833333333334L139.1328125,614" style="pointer-events: stroke; stroke-width: 0.5em; fill: none; stroke: rgb(0, 0, 0); stroke-opacity: 0.001;"/></g><g id="edge-labels" class="edge-labels"><text class="edge-label" id="edge-label-edge-serving_default_args_0:0&#10;0" transform="translate(245.765625,59.5)" style="opacity: 1; font-family: -apple-system, BlinkMacSystemFont, &quot;Segoe WPC&quot;, &quot;Segoe UI&quot;, Ubuntu, &quot;Droid Sans&quot;, sans-serif, &quot;PingFang SC&quot;; font-size: 10px;"><tspan xml:space="preserve" dy="1em" x="1">1×3×320×320</tspan></text><text class="edge-label" id="edge-label-edge-serving_default_args_0:0&#10;0" transform="translate(42.5,135.5)" style="opacity: 1; font-family: -apple-system, BlinkMacSystemFont, &quot;Segoe WPC&quot;, &quot;Segoe UI&quot;, Ubuntu, &quot;Droid Sans&quot;, sans-serif, &quot;PingFang SC&quot;; font-size: 10px;"><tspan xml:space="preserve" dy="1em" x="1">1×3×320×320</tspan></text><text class="edge-label" id="edge-label-edge-model/tf.__operators__.getitem/strided_slice&#10;10" transform="translate(245.765625,187)" style="opacity: 1; font-family: -apple-system, BlinkMacSystemFont, &quot;Segoe WPC&quot;, &quot;Segoe UI&quot;, Ubuntu, &quot;Droid Sans&quot;, sans-serif, &quot;PingFang SC&quot;; font-size: 10px;"><tspan xml:space="preserve" dy="1em" x="1">1×1×9×156</tspan></text><text class="edge-label" id="edge-label-edge-model/tf.nn.relu/Relu1&#10;11" transform="translate(245.765625,278)" style="opacity: 1; font-family: -apple-system, BlinkMacSystemFont, &quot;Segoe WPC&quot;, &quot;Segoe UI&quot;, Ubuntu, &quot;Droid Sans&quot;, sans-serif, &quot;PingFang SC&quot;; font-size: 10px;"><tspan xml:space="preserve" dy="1em" x="1">1×1×9×156</tspan></text><text class="edge-label" id="edge-label-edge-model/tf.nn.relu/Relu2&#10;12" transform="translate(245.765625,357)" style="opacity: 1; font-family: -apple-system, BlinkMacSystemFont, &quot;Segoe WPC&quot;, &quot;Segoe UI&quot;, Ubuntu, &quot;Droid Sans&quot;, sans-serif, &quot;PingFang SC&quot;; font-size: 10px;"><tspan xml:space="preserve" dy="1em" x="1">1×9×156×1</tspan></text><text class="edge-label" id="edge-label-edge-model/tf.compat.v1.transpose_1/transpose1&#10;13" transform="translate(42.5,357)" style="opacity: 1; font-family: -apple-system, BlinkMacSystemFont, &quot;Segoe WPC&quot;, &quot;Segoe UI&quot;, Ubuntu, &quot;Droid Sans&quot;, sans-serif, &quot;PingFang SC&quot;; font-size: 10px;"><tspan xml:space="preserve" dy="1em" x="1">3×320×320×1</tspan></text><text class="edge-label" id="edge-label-edge-model/tf.tensor_scatter_nd_update/TensorScatterUpdate2&#10;14" transform="translate(137.5,135.5)" style="opacity: 1; font-family: -apple-system, BlinkMacSystemFont, &quot;Segoe WPC&quot;, &quot;Segoe UI&quot;, Ubuntu, &quot;Droid Sans&quot;, sans-serif, &quot;PingFang SC&quot;; font-size: 10px;"><tspan xml:space="preserve" dy="1em" x="1">1×9×156×1</tspan></text><text class="edge-label" id="edge-label-edge-model/tf.compat.v1.transpose_1/transpose2&#10;15" transform="translate(137.5,278)" style="opacity: 1; font-family: -apple-system, BlinkMacSystemFont, &quot;Segoe WPC&quot;, &quot;Segoe UI&quot;, Ubuntu, &quot;Droid Sans&quot;, sans-serif, &quot;PingFang SC&quot;; font-size: 10px;"><tspan xml:space="preserve" dy="1em" x="1">3×320×320×1</tspan></text><text class="edge-label" id="edge-label-edge-model/tf.tensor_scatter_nd_update/TensorScatterUpdate3&#10;16" transform="translate(137.5,357)" style="opacity: 1; font-family: -apple-system, BlinkMacSystemFont, &quot;Segoe WPC&quot;, &quot;Segoe UI&quot;, Ubuntu, &quot;Droid Sans&quot;, sans-serif, &quot;PingFang SC&quot;; font-size: 10px;"><tspan xml:space="preserve" dy="1em" x="1">3×320×320×1</tspan></text><text class="edge-label" id="edge-label-edge-model/tf.tensor_scatter_nd_update/TensorScatterUpdate4&#10;17" transform="translate(90,448)" style="opacity: 1; font-family: -apple-system, BlinkMacSystemFont, &quot;Segoe WPC&quot;, &quot;Segoe UI&quot;, Ubuntu, &quot;Droid Sans&quot;, sans-serif, &quot;PingFang SC&quot;; font-size: 10px;"><tspan xml:space="preserve" dy="1em" x="1">3×320×320×1</tspan></text><text class="edge-label" id="edge-label-edge-model/tf.compat.v1.transpose_1/transpose3&#10;18" transform="translate(245.765625,448)" style="opacity: 1; font-family: -apple-system, BlinkMacSystemFont, &quot;Segoe WPC&quot;, &quot;Segoe UI&quot;, Ubuntu, &quot;Droid Sans&quot;, sans-serif, &quot;PingFang SC&quot;; font-size: 10px;"><tspan xml:space="preserve" dy="1em" x="1">3×320×320×1</tspan></text><text class="edge-label" id="edge-label-edge-model/tf.tensor_scatter_nd_update/TensorScatterUpdate5&#10;19" transform="translate(144.1328125,509)" style="opacity: 1; font-family: -apple-system, BlinkMacSystemFont, &quot;Segoe WPC&quot;, &quot;Segoe UI&quot;, Ubuntu, &quot;Droid Sans&quot;, sans-serif, &quot;PingFang SC&quot;; font-size: 10px;"><tspan xml:space="preserve" dy="1em" x="1">3×320×320×1</tspan></text><text class="edge-label" id="edge-label-edge-PartitionedCall:0&#10;20" transform="translate(144.1328125,588)" style="opacity: 1; font-family: -apple-system, BlinkMacSystemFont, &quot;Segoe WPC&quot;, &quot;Segoe UI&quot;, Ubuntu, &quot;Droid Sans&quot;, sans-serif, &quot;PingFang SC&quot;; font-size: 10px;"><tspan xml:space="preserve" dy="1em" x="1">1×3×320×320</tspan></text></g><g id="nodes" class="nodes"><g id="input-name-serving_default_args_0:0&#10;0" class="node graph-input" transform="translate(65.0234375,0)" style="opacity: 1;"><g class="node-item graph-item-input" transform="translate(0,0)"><path d="M5,0h138.21875a5,5 0 0 1 5,5v10a5,5 0 0 1 -5,5h-138.21875a5,5 0 0 1 -5,-5v-10a5,5 0 0 1 5,-5z" style="stroke: rgb(0, 0, 0); fill: rgb(238, 238, 238); stroke-width: 0;"/><text x="6" y="13" style="font-family: -apple-system, BlinkMacSystemFont, &quot;Segoe WPC&quot;, &quot;Segoe UI&quot;, Ubuntu, &quot;Droid Sans&quot;, sans-serif, &quot;PingFang SC&quot;; font-size: 11px; text-rendering: geometricprecision;">serving_default_args_0:0
0</text><title>float32[1,3,320,320]</title></g><path class="node border" d="M5,0h138.21875a5,5 0 0 1 5,5v10a5,5 0 0 1 -5,5h-138.21875a5,5 0 0 1 -5,-5v-10a5,5 0 0 1 5,-5z" style="stroke: rgb(51, 51, 51); fill: none; stroke-width: 1px;"/></g><g id="node-id-0" class="node graph-node" transform="translate(203.265625,110)" style="opacity: 1;"><g class="node-item node-item-type node-item-type-tensor" transform="translate(0,0)"><path d="M5,0h65a5,5 0 0 1 5,5v15a0,0 0 0 1 0,0h-75a0,0 0 0 1 0,0v-15a5,5 0 0 1 5,-5z" style="stroke: rgb(0, 0, 0); fill: rgb(89, 66, 59); stroke-width: 0;"/><text x="6" y="13" style="font-family: -apple-system, BlinkMacSystemFont, &quot;Segoe WPC&quot;, &quot;Segoe UI&quot;, Ubuntu, &quot;Droid Sans&quot;, sans-serif, &quot;PingFang SC&quot;; font-size: 11px; text-rendering: geometricprecision; fill: rgb(255, 255, 255);">StridedSlice</text><title>0</title></g><g class="node-attribute" transform="translate(0,20)"><path d="M0,0h75a0,0 0 0 1 0,0v37a5,5 0 0 1 -5,5h-65a5,5 0 0 1 -5,-5v-37a0,0 0 0 1 0,0z" style="stroke: rgb(0, 0, 0); fill: rgb(255, 255, 255); stroke-width: 0;"/><text id="initializer-model/tf.__operators__.getitem/strided_slice/stack&#10;7" xml:space="preserve" x="6" y="12" style="font-family: -apple-system, BlinkMacSystemFont, &quot;Segoe WPC&quot;, &quot;Segoe UI&quot;, Ubuntu, &quot;Droid Sans&quot;, sans-serif, &quot;PingFang SC&quot;; font-size: 9px; font-weight: normal; text-rendering: geometricprecision;"><title>int32[4]</title><tspan style="font-weight: bold;">begin</tspan><tspan>〈4〉</tspan></text><text id="initializer-model/tf.__operators__.getitem/strided_slice/stack_1&#10;8" xml:space="preserve" x="6" y="24" style="font-family: -apple-system, BlinkMacSystemFont, &quot;Segoe WPC&quot;, &quot;Segoe UI&quot;, Ubuntu, &quot;Droid Sans&quot;, sans-serif, &quot;PingFang SC&quot;; font-size: 9px; font-weight: normal; text-rendering: geometricprecision;"><title>int32[4]</title><tspan style="font-weight: bold;">end</tspan><tspan>〈4〉</tspan></text><text id="initializer-model/tf.__operators__.getitem/strided_slice/stack_2&#10;9" xml:space="preserve" x="6" y="36" style="font-family: -apple-system, BlinkMacSystemFont, &quot;Segoe WPC&quot;, &quot;Segoe UI&quot;, Ubuntu, &quot;Droid Sans&quot;, sans-serif, &quot;PingFang SC&quot;; font-size: 9px; font-weight: normal; text-rendering: geometricprecision;"><title>int32[4]</title><tspan style="font-weight: bold;">strides</tspan><tspan>〈4〉</tspan></text><line class="node" x1="0" x2="75" y1="0" y2="0" style="stroke: rgb(51, 51, 51); fill: none; stroke-width: 1px;"/></g><path class="node border" d="M5,0h65a5,5 0 0 1 5,5v52a5,5 0 0 1 -5,5h-65a5,5 0 0 1 -5,-5v-52a5,5 0 0 1 5,-5z" style="stroke: rgb(51, 51, 51); fill: none; stroke-width: 1px;"/></g><g id="node-id-1" class="node graph-node" transform="translate(222.5703125,228)" style="opacity: 1;"><g class="node-item node-item-type node-item-type-activation" transform="translate(0,0)"><path d="M5,0h26.390625a5,5 0 0 1 5,5v10a5,5 0 0 1 -5,5h-26.390625a5,5 0 0 1 -5,-5v-10a5,5 0 0 1 5,-5z" style="stroke: rgb(0, 0, 0); fill: rgb(112, 41, 33); stroke-width: 0;"/><text x="6" y="13" style="font-family: -apple-system, BlinkMacSystemFont, &quot;Segoe WPC&quot;, &quot;Segoe UI&quot;, Ubuntu, &quot;Droid Sans&quot;, sans-serif, &quot;PingFang SC&quot;; font-size: 11px; text-rendering: geometricprecision; fill: rgb(255, 255, 255);">Relu</text><title>1</title></g><path class="node border" d="M5,0h26.390625a5,5 0 0 1 5,5v10a5,5 0 0 1 -5,5h-26.390625a5,5 0 0 1 -5,-5v-10a5,5 0 0 1 5,-5z" style="stroke: rgb(51, 51, 51); fill: none; stroke-width: 1px;"/></g><g id="node-id-2" class="node graph-node" transform="translate(203.265625,304)" style="opacity: 1;"><g class="node-item node-item-type node-item-type-shape" transform="translate(0,0)"><path d="M5,0h65a5,5 0 0 1 5,5v15a0,0 0 0 1 0,0h-75a0,0 0 0 1 0,0v-15a5,5 0 0 1 5,-5z" style="stroke: rgb(0, 0, 0); fill: rgb(108, 79, 71); stroke-width: 0;"/><text x="6" y="13" style="font-family: -apple-system, BlinkMacSystemFont, &quot;Segoe WPC&quot;, &quot;Segoe UI&quot;, Ubuntu, &quot;Droid Sans&quot;, sans-serif, &quot;PingFang SC&quot;; font-size: 11px; text-rendering: geometricprecision; fill: rgb(255, 255, 255);">Reshape</text><title>2</title></g><g class="node-attribute" transform="translate(0,20)"><path d="M0,0h75a0,0 0 0 1 0,0v13a5,5 0 0 1 -5,5h-65a5,5 0 0 1 -5,-5v-13a0,0 0 0 1 0,0z" style="stroke: rgb(0, 0, 0); fill: rgb(255, 255, 255); stroke-width: 0;"/><text id="initializer-model/tf.nn.relu/Relu&#10;1" xml:space="preserve" x="6" y="12" style="font-family: -apple-system, BlinkMacSystemFont, &quot;Segoe WPC&quot;, &quot;Segoe UI&quot;, Ubuntu, &quot;Droid Sans&quot;, sans-serif, &quot;PingFang SC&quot;; font-size: 9px; font-weight: normal; text-rendering: geometricprecision;"><title>int32[4]</title><tspan style="font-weight: bold;">shape</tspan><tspan>〈4〉</tspan></text><line class="node" x1="0" x2="75" y1="0" y2="0" style="stroke: rgb(51, 51, 51); fill: none; stroke-width: 1px;"/></g><path class="node border" d="M5,0h65a5,5 0 0 1 5,5v28a5,5 0 0 1 -5,5h-65a5,5 0 0 1 -5,-5v-28a5,5 0 0 1 5,-5z" style="stroke: rgb(51, 51, 51); fill: none; stroke-width: 1px;"/></g><g id="node-id-3" class="node graph-node" transform="translate(0,304)" style="opacity: 1;"><g class="node-item node-item-type node-item-type-shape" transform="translate(0,0)"><path d="M5,0h65a5,5 0 0 1 5,5v15a0,0 0 0 1 0,0h-75a0,0 0 0 1 0,0v-15a5,5 0 0 1 5,-5z" style="stroke: rgb(0, 0, 0); fill: rgb(108, 79, 71); stroke-width: 0;"/><text x="6" y="13" style="font-family: -apple-system, BlinkMacSystemFont, &quot;Segoe WPC&quot;, &quot;Segoe UI&quot;, Ubuntu, &quot;Droid Sans&quot;, sans-serif, &quot;PingFang SC&quot;; font-size: 11px; text-rendering: geometricprecision; fill: rgb(255, 255, 255);">Reshape</text><title>3</title></g><g class="node-attribute" transform="translate(0,20)"><path d="M0,0h75a0,0 0 0 1 0,0v13a5,5 0 0 1 -5,5h-65a5,5 0 0 1 -5,-5v-13a0,0 0 0 1 0,0z" style="stroke: rgb(0, 0, 0); fill: rgb(255, 255, 255); stroke-width: 0;"/><text id="initializer-model/tf.compat.v1.transpose_1/transpose&#10;2" xml:space="preserve" x="6" y="12" style="font-family: -apple-system, BlinkMacSystemFont, &quot;Segoe WPC&quot;, &quot;Segoe UI&quot;, Ubuntu, &quot;Droid Sans&quot;, sans-serif, &quot;PingFang SC&quot;; font-size: 9px; font-weight: normal; text-rendering: geometricprecision;"><title>int32[4]</title><tspan style="font-weight: bold;">shape</tspan><tspan>〈4〉</tspan></text><line class="node" x1="0" x2="75" y1="0" y2="0" style="stroke: rgb(51, 51, 51); fill: none; stroke-width: 1px;"/></g><path class="node border" d="M5,0h65a5,5 0 0 1 5,5v28a5,5 0 0 1 -5,5h-65a5,5 0 0 1 -5,-5v-28a5,5 0 0 1 5,-5z" style="stroke: rgb(51, 51, 51); fill: none; stroke-width: 1px;"/></g><g id="node-id-4" class="node graph-node" transform="translate(94.3359375,40)" style="opacity: 1;"><g class="node-item node-item-type" transform="translate(0,0)"><path d="M5,0h66.328125a5,5 0 0 1 5,5v15a0,0 0 0 1 0,0h-76.328125a0,0 0 0 1 0,0v-15a5,5 0 0 1 5,-5z" style="stroke: rgb(0, 0, 0); fill: rgb(0, 0, 0); stroke-width: 0;"/><text x="6" y="13" style="font-family: -apple-system, BlinkMacSystemFont, &quot;Segoe WPC&quot;, &quot;Segoe UI&quot;, Ubuntu, &quot;Droid Sans&quot;, sans-serif, &quot;PingFang SC&quot;; font-size: 11px; text-rendering: geometricprecision; fill: rgb(255, 255, 255);">BroadcastTo</text><title>4</title></g><g class="node-attribute" transform="translate(0,20)"><path d="M0,0h76.328125a0,0 0 0 1 0,0v25a5,5 0 0 1 -5,5h-66.328125a5,5 0 0 1 -5,-5v-25a0,0 0 0 1 0,0z" style="stroke: rgb(0, 0, 0); fill: rgb(255, 255, 255); stroke-width: 0;"/><text id="initializer-model/tf.tensor_scatter_nd_update/TensorScatterUpdate1&#10;5" xml:space="preserve" x="6" y="12" style="font-family: -apple-system, BlinkMacSystemFont, &quot;Segoe WPC&quot;, &quot;Segoe UI&quot;, Ubuntu, &quot;Droid Sans&quot;, sans-serif, &quot;PingFang SC&quot;; font-size: 9px; font-weight: normal; text-rendering: geometricprecision;"><title>float32</title><tspan>1</tspan><tspan> = 1</tspan></text><text id="initializer-model/tf.tensor_scatter_nd_update/TensorScatterUpdate&#10;4" xml:space="preserve" x="6" y="24" style="font-family: -apple-system, BlinkMacSystemFont, &quot;Segoe WPC&quot;, &quot;Segoe UI&quot;, Ubuntu, &quot;Droid Sans&quot;, sans-serif, &quot;PingFang SC&quot;; font-size: 9px; font-weight: normal; text-rendering: geometricprecision;"><title>int64[4]</title><tspan style="font-weight: bold;">2</tspan><tspan>〈4〉</tspan></text><line class="node" x1="0" x2="76.328125" y1="0" y2="0" style="stroke: rgb(51, 51, 51); fill: none; stroke-width: 1px;"/></g><path class="node border" d="M5,0h66.328125a5,5 0 0 1 5,5v40a5,5 0 0 1 -5,5h-66.328125a5,5 0 0 1 -5,-5v-40a5,5 0 0 1 5,-5z" style="stroke: rgb(51, 51, 51); fill: none; stroke-width: 1px;"/></g><g id="node-id-5" class="node graph-node" transform="translate(92.09375,213)" style="opacity: 1;"><g class="node-item node-item-type" transform="translate(0,0)"><path d="M5,0h70.8125a5,5 0 0 1 5,5v15a0,0 0 0 1 0,0h-80.8125a0,0 0 0 1 0,0v-15a5,5 0 0 1 5,-5z" style="stroke: rgb(0, 0, 0); fill: rgb(0, 0, 0); stroke-width: 0;"/><text x="6" y="13" style="font-family: -apple-system, BlinkMacSystemFont, &quot;Segoe WPC&quot;, &quot;Segoe UI&quot;, Ubuntu, &quot;Droid Sans&quot;, sans-serif, &quot;PingFang SC&quot;; font-size: 11px; text-rendering: geometricprecision; fill: rgb(255, 255, 255);">ScatterNd</text><title>5</title></g><g class="node-attribute" transform="translate(0,20)"><path d="M0,0h80.8125a0,0 0 0 1 0,0v25a5,5 0 0 1 -5,5h-70.8125a5,5 0 0 1 -5,-5v-25a0,0 0 0 1 0,0z" style="stroke: rgb(0, 0, 0); fill: rgb(255, 255, 255); stroke-width: 0;"/><text id="initializer-Const&#10;6" xml:space="preserve" x="6" y="12" style="font-family: -apple-system, BlinkMacSystemFont, &quot;Segoe WPC&quot;, &quot;Segoe UI&quot;, Ubuntu, &quot;Droid Sans&quot;, sans-serif, &quot;PingFang SC&quot;; font-size: 9px; font-weight: normal; text-rendering: geometricprecision;"><title>int32[1,9,156,3]</title><tspan style="font-weight: bold;">1</tspan><tspan>〈1×9×156×3〉</tspan></text><text id="initializer-model/tf.compat.v1.transpose_1/transpose&#10;2" xml:space="preserve" x="6" y="24" style="font-family: -apple-system, BlinkMacSystemFont, &quot;Segoe WPC&quot;, &quot;Segoe UI&quot;, Ubuntu, &quot;Droid Sans&quot;, sans-serif, &quot;PingFang SC&quot;; font-size: 9px; font-weight: normal; text-rendering: geometricprecision;"><title>int32[4]</title><tspan style="font-weight: bold;">3</tspan><tspan>〈4〉</tspan></text><line class="node" x1="0" x2="80.8125" y1="0" y2="0" style="stroke: rgb(51, 51, 51); fill: none; stroke-width: 1px;"/></g><path class="node border" d="M5,0h70.8125a5,5 0 0 1 5,5v40a5,5 0 0 1 -5,5h-70.8125a5,5 0 0 1 -5,-5v-40a5,5 0 0 1 5,-5z" style="stroke: rgb(51, 51, 51); fill: none; stroke-width: 1px;"/></g><g id="node-id-6" class="node graph-node" transform="translate(95,304)" style="opacity: 1;"><g class="node-item node-item-type" transform="translate(0,0)"><path d="M5,0h65a5,5 0 0 1 5,5v15a0,0 0 0 1 0,0h-75a0,0 0 0 1 0,0v-15a5,5 0 0 1 5,-5z" style="stroke: rgb(0, 0, 0); fill: rgb(0, 0, 0); stroke-width: 0;"/><text x="6" y="13" style="font-family: -apple-system, BlinkMacSystemFont, &quot;Segoe WPC&quot;, &quot;Segoe UI&quot;, Ubuntu, &quot;Droid Sans&quot;, sans-serif, &quot;PingFang SC&quot;; font-size: 11px; text-rendering: geometricprecision; fill: rgb(255, 255, 255);">Sub</text><title>6</title></g><g class="node-attribute" transform="translate(0,20)"><path d="M0,0h75a0,0 0 0 1 0,0v13a5,5 0 0 1 -5,5h-65a5,5 0 0 1 -5,-5v-13a0,0 0 0 1 0,0z" style="stroke: rgb(0, 0, 0); fill: rgb(255, 255, 255); stroke-width: 0;"/><text id="initializer-model/tf.tensor_scatter_nd_update/TensorScatterUpdate1&#10;5" xml:space="preserve" x="6" y="12" style="font-family: -apple-system, BlinkMacSystemFont, &quot;Segoe WPC&quot;, &quot;Segoe UI&quot;, Ubuntu, &quot;Droid Sans&quot;, sans-serif, &quot;PingFang SC&quot;; font-size: 9px; font-weight: normal; text-rendering: geometricprecision;"><title>float32</title><tspan>A</tspan><tspan> = 1</tspan></text><line class="node" x1="0" x2="75" y1="0" y2="0" style="stroke: rgb(51, 51, 51); fill: none; stroke-width: 1px;"/></g><path class="node border" d="M5,0h65a5,5 0 0 1 5,5v28a5,5 0 0 1 -5,5h-65a5,5 0 0 1 -5,-5v-28a5,5 0 0 1 5,-5z" style="stroke: rgb(51, 51, 51); fill: none; stroke-width: 1px;"/></g><g id="node-id-7" class="node graph-node" transform="translate(68.546875,398)" style="opacity: 1;"><g class="node-item node-item-type" transform="translate(0,0)"><path d="M5,0h22.90625a5,5 0 0 1 5,5v10a5,5 0 0 1 -5,5h-22.90625a5,5 0 0 1 -5,-5v-10a5,5 0 0 1 5,-5z" style="stroke: rgb(0, 0, 0); fill: rgb(0, 0, 0); stroke-width: 0;"/><text x="6" y="13" style="font-family: -apple-system, BlinkMacSystemFont, &quot;Segoe WPC&quot;, &quot;Segoe UI&quot;, Ubuntu, &quot;Droid Sans&quot;, sans-serif, &quot;PingFang SC&quot;; font-size: 11px; text-rendering: geometricprecision; fill: rgb(255, 255, 255);">Mul</text><title>7</title></g><path class="node border" d="M5,0h22.90625a5,5 0 0 1 5,5v10a5,5 0 0 1 -5,5h-22.90625a5,5 0 0 1 -5,-5v-10a5,5 0 0 1 5,-5z" style="stroke: rgb(51, 51, 51); fill: none; stroke-width: 1px;"/></g><g id="node-id-8" class="node graph-node" transform="translate(200.359375,383)" style="opacity: 1;"><g class="node-item node-item-type" transform="translate(0,0)"><path d="M5,0h70.8125a5,5 0 0 1 5,5v15a0,0 0 0 1 0,0h-80.8125a0,0 0 0 1 0,0v-15a5,5 0 0 1 5,-5z" style="stroke: rgb(0, 0, 0); fill: rgb(0, 0, 0); stroke-width: 0;"/><text x="6" y="13" style="font-family: -apple-system, BlinkMacSystemFont, &quot;Segoe WPC&quot;, &quot;Segoe UI&quot;, Ubuntu, &quot;Droid Sans&quot;, sans-serif, &quot;PingFang SC&quot;; font-size: 11px; text-rendering: geometricprecision; fill: rgb(255, 255, 255);">ScatterNd</text><title>8</title></g><g class="node-attribute" transform="translate(0,20)"><path d="M0,0h80.8125a0,0 0 0 1 0,0v25a5,5 0 0 1 -5,5h-70.8125a5,5 0 0 1 -5,-5v-25a0,0 0 0 1 0,0z" style="stroke: rgb(0, 0, 0); fill: rgb(255, 255, 255); stroke-width: 0;"/><text id="initializer-Const&#10;6" xml:space="preserve" x="6" y="12" style="font-family: -apple-system, BlinkMacSystemFont, &quot;Segoe WPC&quot;, &quot;Segoe UI&quot;, Ubuntu, &quot;Droid Sans&quot;, sans-serif, &quot;PingFang SC&quot;; font-size: 9px; font-weight: normal; text-rendering: geometricprecision;"><title>int32[1,9,156,3]</title><tspan style="font-weight: bold;">1</tspan><tspan>〈1×9×156×3〉</tspan></text><text id="initializer-model/tf.compat.v1.transpose_1/transpose&#10;2" xml:space="preserve" x="6" y="24" style="font-family: -apple-system, BlinkMacSystemFont, &quot;Segoe WPC&quot;, &quot;Segoe UI&quot;, Ubuntu, &quot;Droid Sans&quot;, sans-serif, &quot;PingFang SC&quot;; font-size: 9px; font-weight: normal; text-rendering: geometricprecision;"><title>int32[4]</title><tspan style="font-weight: bold;">3</tspan><tspan>〈4〉</tspan></text><line class="node" x1="0" x2="80.8125" y1="0" y2="0" style="stroke: rgb(51, 51, 51); fill: none; stroke-width: 1px;"/></g><path class="node border" d="M5,0h70.8125a5,5 0 0 1 5,5v40a5,5 0 0 1 -5,5h-70.8125a5,5 0 0 1 -5,-5v-40a5,5 0 0 1 5,-5z" style="stroke: rgb(51, 51, 51); fill: none; stroke-width: 1px;"/></g><g id="node-id-9" class="node graph-node" transform="translate(122.078125,474)" style="opacity: 1;"><g class="node-item node-item-type" transform="translate(0,0)"><path d="M5,0h24.109375a5,5 0 0 1 5,5v10a5,5 0 0 1 -5,5h-24.109375a5,5 0 0 1 -5,-5v-10a5,5 0 0 1 5,-5z" style="stroke: rgb(0, 0, 0); fill: rgb(0, 0, 0); stroke-width: 0;"/><text x="6" y="13" style="font-family: -apple-system, BlinkMacSystemFont, &quot;Segoe WPC&quot;, &quot;Segoe UI&quot;, Ubuntu, &quot;Droid Sans&quot;, sans-serif, &quot;PingFang SC&quot;; font-size: 11px; text-rendering: geometricprecision; fill: rgb(255, 255, 255);">Add</text><title>9</title></g><path class="node border" d="M5,0h24.109375a5,5 0 0 1 5,5v10a5,5 0 0 1 -5,5h-24.109375a5,5 0 0 1 -5,-5v-10a5,5 0 0 1 5,-5z" style="stroke: rgb(51, 51, 51); fill: none; stroke-width: 1px;"/></g><g id="node-id-10" class="node graph-node" transform="translate(101.6328125,535)" style="opacity: 1;"><g class="node-item node-item-type node-item-type-shape" transform="translate(0,0)"><path d="M5,0h65a5,5 0 0 1 5,5v15a0,0 0 0 1 0,0h-75a0,0 0 0 1 0,0v-15a5,5 0 0 1 5,-5z" style="stroke: rgb(0, 0, 0); fill: rgb(108, 79, 71); stroke-width: 0;"/><text x="6" y="13" style="font-family: -apple-system, BlinkMacSystemFont, &quot;Segoe WPC&quot;, &quot;Segoe UI&quot;, Ubuntu, &quot;Droid Sans&quot;, sans-serif, &quot;PingFang SC&quot;; font-size: 11px; text-rendering: geometricprecision; fill: rgb(255, 255, 255);">Reshape</text><title>10</title></g><g class="node-attribute" transform="translate(0,20)"><path d="M0,0h75a0,0 0 0 1 0,0v13a5,5 0 0 1 -5,5h-65a5,5 0 0 1 -5,-5v-13a0,0 0 0 1 0,0z" style="stroke: rgb(0, 0, 0); fill: rgb(255, 255, 255); stroke-width: 0;"/><text id="initializer-model/tf.compat.v1.transpose_2/transpose&#10;3" xml:space="preserve" x="6" y="12" style="font-family: -apple-system, BlinkMacSystemFont, &quot;Segoe WPC&quot;, &quot;Segoe UI&quot;, Ubuntu, &quot;Droid Sans&quot;, sans-serif, &quot;PingFang SC&quot;; font-size: 9px; font-weight: normal; text-rendering: geometricprecision;"><title>int32[4]</title><tspan style="font-weight: bold;">shape</tspan><tspan>〈4〉</tspan></text><line class="node" x1="0" x2="75" y1="0" y2="0" style="stroke: rgb(51, 51, 51); fill: none; stroke-width: 1px;"/></g><path class="node border" d="M5,0h65a5,5 0 0 1 5,5v28a5,5 0 0 1 -5,5h-65a5,5 0 0 1 -5,-5v-28a5,5 0 0 1 5,-5z" style="stroke: rgb(51, 51, 51); fill: none; stroke-width: 1px;"/></g><g class="node" transform="translate(82.75780868530273,614)" style="opacity: 1;"><g class="node-item graph-item-output" transform="translate(0,0)"><path d="M5,0h102.75a5,5 0 0 1 5,5v10a5,5 0 0 1 -5,5h-102.75a5,5 0 0 1 -5,-5v-10a5,5 0 0 1 5,-5z" style="stroke: rgb(0, 0, 0); fill: rgb(238, 238, 238); stroke-width: 0;"/><text x="6" y="13" style="font-family: -apple-system, BlinkMacSystemFont, &quot;Segoe WPC&quot;, &quot;Segoe UI&quot;, Ubuntu, &quot;Droid Sans&quot;, sans-serif, &quot;PingFang SC&quot;; font-size: 11px; text-rendering: geometricprecision;">PartitionedCall:0
20</text><title>float32[1,3,320,320]</title></g><path class="node border" d="M5,0h102.75a5,5 0 0 1 5,5v10a5,5 0 0 1 -5,5h-102.75a5,5 0 0 1 -5,-5v-10a5,5 0 0 1 5,-5z" style="stroke: rgb(51, 51, 51); fill: none; stroke-width: 1px;"/></g></g></g></svg>