<svg xmlns="http://www.w3.org/2000/svg" id="export" class="canvas" preserveAspectRatio="xMidYMid meet" style="" width="286" height="697"><rect id="background" fill="#fff" pointer-events="all" width="286" height="697"/><g id="origin" transform="translate(22.97099914550781, 12.970999145507813) scale(1)"><g id="clusters" class="clusters"/><g id="edge-paths" class="edge-paths"><defs><marker id="arrowhead" viewBox="0 0 10 10" refX="9" refY="5" markerUnits="strokeWidth" markerWidth="8" markerHeight="6" orient="auto" style="fill: rgb(0, 0, 0);"><path d="M 0 0 L 10 5 L 0 10 L 4 5 z" style="stroke-width: 1;"/></marker><marker id="arrowhead-select" viewBox="0 0 10 10" refX="9" refY="5" markerUnits="strokeWidth" markerWidth="8" markerHeight="6" orient="auto" style="fill: rgb(238, 0, 0);"><path d="M 0 0 L 10 5 L 0 10 L 4 5 z" style="stroke-width: 1;"/></marker><marker id="arrowhead-hover" viewBox="0 0 10 10" refX="9" refY="5" markerUnits="strokeWidth" markerWidth="8" markerHeight="6" orient="auto"><path d="M 0 0 L 10 5 L 0 10 L 4 5 z" style="stroke-width: 1;"/></marker></defs><path id="edge-serving_default_input&#10;0" class="edge-path" d="M112.79856436593192,35L124.16880180722193,39.166666666666664C135.5390392485119,43.333333333333336,158.2795141310919,51.666666666666664,169.6497515723819,59.25C181.01998901367188,66.83333333333333,181.01998901367188,73.66666666666667,181.01998901367188,80.5C181.01998901367188,87.33333333333333,181.01998901367188,94.16666666666667,181.01998901367188,99.25C181.01998901367188,104.33333333333333,181.01998901367188,107.66666666666667,181.01998901367188,109.33333333333333L181.01998901367188,111" style="stroke: rgb(0, 0, 0); stroke-width: 1px; fill: none; marker-end: url(&quot;#arrowhead&quot;);"/><path class="edge-path-hit-test" d="M112.79856436593192,35L124.16880180722193,39.166666666666664C135.5390392485119,43.333333333333336,158.2795141310919,51.666666666666664,169.6497515723819,59.25C181.01998901367188,66.83333333333333,181.01998901367188,73.66666666666667,181.01998901367188,80.5C181.01998901367188,87.33333333333333,181.01998901367188,94.16666666666667,181.01998901367188,99.25C181.01998901367188,104.33333333333333,181.01998901367188,107.66666666666667,181.01998901367188,109.33333333333333L181.01998901367188,111" style="pointer-events: stroke; stroke-width: 0.5em; fill: none; stroke: rgb(0, 0, 0); stroke-opacity: 0.001;"/><path id="edge-serving_default_input&#10;0" class="edge-path" d="M58.22142464773995,35L46.85118720644996,39.166666666666664C35.48094976515997,43.333333333333336,12.740474882579983,51.666666666666664,1.3702374412899918,59.25C-10,66.83333333333333,-10,73.66666666666667,-10,80.5C-10,87.33333333333333,-10,94.16666666666667,-10,104.41666666666667C-10,114.66666666666667,-10,128.33333333333334,-10,143.75C-10,159.16666666666666,-10,176.33333333333334,-10,193.5C-10,210.66666666666666,-10,227.83333333333334,-10,245C-10,262.1666666666667,-10,279.3333333333333,-10,296.5C-10,313.6666666666667,-10,330.8333333333333,-10,348C-10,365.1666666666667,-10,382.3333333333333,-10,397.5C-10,412.6666666666667,-10,425.8333333333333,-10,439C-10,452.1666666666667,-10,465.3333333333333,-4.642491239331144,477.8333333333333C0.7150175213377116,490.3333333333333,11.430035042675422,502.1666666666667,16.787543803344278,508.0833333333333L22.145052564013135,514" style="stroke: rgb(0, 0, 0); stroke-width: 1px; fill: none; marker-end: url(&quot;#arrowhead&quot;);"/><path class="edge-path-hit-test" d="M58.22142464773995,35L46.85118720644996,39.166666666666664C35.48094976515997,43.333333333333336,12.740474882579983,51.666666666666664,1.3702374412899918,59.25C-10,66.83333333333333,-10,73.66666666666667,-10,80.5C-10,87.33333333333333,-10,94.16666666666667,-10,104.41666666666667C-10,114.66666666666667,-10,128.33333333333334,-10,143.75C-10,159.16666666666666,-10,176.33333333333334,-10,193.5C-10,210.66666666666666,-10,227.83333333333334,-10,245C-10,262.1666666666667,-10,279.3333333333333,-10,296.5C-10,313.6666666666667,-10,330.8333333333333,-10,348C-10,365.1666666666667,-10,382.3333333333333,-10,397.5C-10,412.6666666666667,-10,425.8333333333333,-10,439C-10,452.1666666666667,-10,465.3333333333333,-4.642491239331144,477.8333333333333C0.7150175213377116,490.3333333333333,11.430035042675422,502.1666666666667,16.787543803344278,508.0833333333333L22.145052564013135,514" style="pointer-events: stroke; stroke-width: 0.5em; fill: none; stroke: rgb(0, 0, 0); stroke-opacity: 0.001;"/><path id="edge-onnx_tf_prefix_/Slice3&#10;15" class="edge-path" d="M181.01998901367188,173L181.01998901367188,176.41666666666666C181.01998901367188,179.83333333333334,181.01998901367188,186.66666666666666,181.01998901367188,193.5C181.01998901367188,200.33333333333334,181.01998901367188,207.16666666666666,181.01998901367188,210.58333333333334L181.01998901367188,214" style="stroke: rgb(0, 0, 0); stroke-width: 1px; fill: none; marker-end: url(&quot;#arrowhead&quot;);"/><path class="edge-path-hit-test" d="M181.01998901367188,173L181.01998901367188,176.41666666666666C181.01998901367188,179.83333333333334,181.01998901367188,186.66666666666666,181.01998901367188,193.5C181.01998901367188,200.33333333333334,181.01998901367188,207.16666666666666,181.01998901367188,210.58333333333334L181.01998901367188,214" style="pointer-events: stroke; stroke-width: 0.5em; fill: none; stroke: rgb(0, 0, 0); stroke-opacity: 0.001;"/><path id="edge-onnx_tf_prefix_/Slice_12&#10;16" class="edge-path" d="M181.01998901367188,276L181.01998901367188,279.4166666666667C181.01998901367188,282.8333333333333,181.01998901367188,289.6666666666667,181.01998901367188,296.5C181.01998901367188,303.3333333333333,181.01998901367188,310.1666666666667,181.01998901367188,313.5833333333333L181.01998901367188,317" style="stroke: rgb(0, 0, 0); stroke-width: 1px; fill: none; marker-end: url(&quot;#arrowhead&quot;);"/><path class="edge-path-hit-test" d="M181.01998901367188,276L181.01998901367188,279.4166666666667C181.01998901367188,282.8333333333333,181.01998901367188,289.6666666666667,181.01998901367188,296.5C181.01998901367188,303.3333333333333,181.01998901367188,310.1666666666667,181.01998901367188,313.5833333333333L181.01998901367188,317" style="pointer-events: stroke; stroke-width: 0.5em; fill: none; stroke: rgb(0, 0, 0); stroke-opacity: 0.001;"/><path id="edge-onnx_tf_prefix_/Slice_23&#10;17" class="edge-path" d="M181.01998901367188,379L181.01998901367188,382.4166666666667C181.01998901367188,385.8333333333333,181.01998901367188,392.6666666666667,181.01998901367188,401C181.01998901367188,409.3333333333333,181.01998901367188,419.1666666666667,181.01998901367188,424.0833333333333L181.01998901367188,429" style="stroke: rgb(0, 0, 0); stroke-width: 1px; fill: none; marker-end: url(&quot;#arrowhead&quot;);"/><path class="edge-path-hit-test" d="M181.01998901367188,379L181.01998901367188,382.4166666666667C181.01998901367188,385.8333333333333,181.01998901367188,392.6666666666667,181.01998901367188,401C181.01998901367188,409.3333333333333,181.01998901367188,419.1666666666667,181.01998901367188,424.0833333333333L181.01998901367188,429" style="pointer-events: stroke; stroke-width: 0.5em; fill: none; stroke: rgb(0, 0, 0); stroke-opacity: 0.001;"/><path id="edge-onnx_tf_prefix_/Relu&#10;18" class="edge-path" d="M181.01998901367188,449L181.01998901367188,453.9166666666667C181.01998901367188,458.8333333333333,181.01998901367188,468.6666666666667,181.01998901367188,477C181.01998901367188,485.3333333333333,181.01998901367188,492.1666666666667,181.01998901367188,495.5833333333333L181.01998901367188,499" style="stroke: rgb(0, 0, 0); stroke-width: 1px; fill: none; marker-end: url(&quot;#arrowhead&quot;);"/><path class="edge-path-hit-test" d="M181.01998901367188,449L181.01998901367188,453.9166666666667C181.01998901367188,458.8333333333333,181.01998901367188,468.6666666666667,181.01998901367188,477C181.01998901367188,485.3333333333333,181.01998901367188,492.1666666666667,181.01998901367188,495.5833333333333L181.01998901367188,499" style="pointer-events: stroke; stroke-width: 0.5em; fill: none; stroke: rgb(0, 0, 0); stroke-opacity: 0.001;"/><path id="edge-onnx_tf_prefix_/ScatterND2&#10;21" class="edge-path" d="M72.39999389648438,167L72.39999389648438,171.41666666666666C72.39999389648438,175.83333333333334,72.39999389648438,184.66666666666666,72.39999389648438,197.66666666666666C72.39999389648438,210.66666666666666,72.39999389648438,227.83333333333334,72.39999389648438,245C72.39999389648438,262.1666666666667,72.39999389648438,279.3333333333333,72.39999389648438,292.3333333333333C72.39999389648438,305.3333333333333,72.39999389648438,314.1666666666667,72.39999389648438,318.5833333333333L72.39999389648438,323" style="stroke: rgb(0, 0, 0); stroke-width: 1px; fill: none; marker-end: url(&quot;#arrowhead&quot;);"/><path class="edge-path-hit-test" d="M72.39999389648438,167L72.39999389648438,171.41666666666666C72.39999389648438,175.83333333333334,72.39999389648438,184.66666666666666,72.39999389648438,197.66666666666666C72.39999389648438,210.66666666666666,72.39999389648438,227.83333333333334,72.39999389648438,245C72.39999389648438,262.1666666666667,72.39999389648438,279.3333333333333,72.39999389648438,292.3333333333333C72.39999389648438,305.3333333333333,72.39999389648438,314.1666666666667,72.39999389648438,318.5833333333333L72.39999389648438,323" style="pointer-events: stroke; stroke-width: 0.5em; fill: none; stroke: rgb(0, 0, 0); stroke-opacity: 0.001;"/><path id="edge-tfl.scatter_nd&#10;22" class="edge-path" d="M72.39999389648438,373L72.39999389648438,377.4166666666667C72.39999389648438,381.8333333333333,72.39999389648438,390.6666666666667,72.39999389648438,398.5C72.39999389648438,406.3333333333333,72.39999389648438,413.1666666666667,72.39999389648438,416.5833333333333L72.39999389648438,420" style="stroke: rgb(0, 0, 0); stroke-width: 1px; fill: none; marker-end: url(&quot;#arrowhead&quot;);"/><path class="edge-path-hit-test" d="M72.39999389648438,373L72.39999389648438,377.4166666666667C72.39999389648438,381.8333333333333,72.39999389648438,390.6666666666667,72.39999389648438,398.5C72.39999389648438,406.3333333333333,72.39999389648438,413.1666666666667,72.39999389648438,416.5833333333333L72.39999389648438,420" style="pointer-events: stroke; stroke-width: 0.5em; fill: none; stroke: rgb(0, 0, 0); stroke-opacity: 0.001;"/><path id="edge-onnx_tf_prefix_/ScatterND3&#10;23" class="edge-path" d="M72.39999389648438,458L72.39999389648438,461.4166666666667C72.39999389648438,464.8333333333333,72.39999389648438,471.6666666666667,67.04248513581551,481C61.68497637514667,490.3333333333333,50.969958853808954,502.1666666666667,45.6124500931401,508.0833333333333L40.25494133247124,514" style="stroke: rgb(0, 0, 0); stroke-width: 1px; fill: none; marker-end: url(&quot;#arrowhead&quot;);"/><path class="edge-path-hit-test" d="M72.39999389648438,458L72.39999389648438,461.4166666666667C72.39999389648438,464.8333333333333,72.39999389648438,471.6666666666667,67.04248513581551,481C61.68497637514667,490.3333333333333,50.969958853808954,502.1666666666667,45.6124500931401,508.0833333333333L40.25494133247124,514" style="pointer-events: stroke; stroke-width: 0.5em; fill: none; stroke: rgb(0, 0, 0); stroke-opacity: 0.001;"/><path id="edge-onnx_tf_prefix_/ScatterND4&#10;24" class="edge-path" d="M31.199996948242188,534L31.199996948242188,539.9166666666666C31.199996948242188,545.8333333333334,31.199996948242188,557.6666666666666,37.40921529134115,567.0703738042927C43.6184336344401,576.4740809419186,56.03687032063802,583.4481618838373,62.24608866373698,586.9352023547966L68.45530700683594,590.4222428257559" style="stroke: rgb(0, 0, 0); stroke-width: 1px; fill: none; marker-end: url(&quot;#arrowhead&quot;);"/><path class="edge-path-hit-test" d="M31.199996948242188,534L31.199996948242188,539.9166666666666C31.199996948242188,545.8333333333334,31.199996948242188,557.6666666666666,37.40921529134115,567.0703738042927C43.6184336344401,576.4740809419186,56.03687032063802,583.4481618838373,62.24608866373698,586.9352023547966L68.45530700683594,590.4222428257559" style="pointer-events: stroke; stroke-width: 0.5em; fill: none; stroke: rgb(0, 0, 0); stroke-opacity: 0.001;"/><path id="edge-tfl.scatter_nd1&#10;25" class="edge-path" d="M181.01998901367188,549L181.01998901367188,552.4166666666666C181.01998901367188,555.8333333333334,181.01998901367188,562.6666666666666,167.94410451253256,570.258964159657C154.86822001139322,577.8512616526474,128.7164510091146,586.2025233052947,115.64056650797527,590.3781541316184L102.56468200683594,594.5537849579421" style="stroke: rgb(0, 0, 0); stroke-width: 1px; fill: none; marker-end: url(&quot;#arrowhead&quot;);"/><path class="edge-path-hit-test" d="M181.01998901367188,549L181.01998901367188,552.4166666666666C181.01998901367188,555.8333333333334,181.01998901367188,562.6666666666666,167.94410451253256,570.258964159657C154.86822001139322,577.8512616526474,128.7164510091146,586.2025233052947,115.64056650797527,590.3781541316184L102.56468200683594,594.5537849579421" style="pointer-events: stroke; stroke-width: 0.5em; fill: none; stroke: rgb(0, 0, 0); stroke-opacity: 0.001;"/><path id="edge-StatefulPartitionedCall&#10;26" class="edge-path" d="M85.50999450683594,610L85.50999450683594,613.4166666666666C85.50999450683594,616.8333333333334,85.50999450683594,623.6666666666666,85.50999450683594,630.5C85.50999450683594,637.3333333333334,85.50999450683594,644.1666666666666,85.50999450683594,647.5833333333334L85.50999450683594,651" style="stroke: rgb(0, 0, 0); stroke-width: 1px; fill: none; marker-end: url(&quot;#arrowhead&quot;);"/><path class="edge-path-hit-test" d="M85.50999450683594,610L85.50999450683594,613.4166666666666C85.50999450683594,616.8333333333334,85.50999450683594,623.6666666666666,85.50999450683594,630.5C85.50999450683594,637.3333333333334,85.50999450683594,644.1666666666666,85.50999450683594,647.5833333333334L85.50999450683594,651" style="pointer-events: stroke; stroke-width: 0.5em; fill: none; stroke: rgb(0, 0, 0); stroke-opacity: 0.001;"/></g><g id="edge-labels" class="edge-labels"><text class="edge-label" id="edge-label-edge-serving_default_input&#10;0" transform="translate(186.01998901367188,75)" style="opacity: 1; font-family: -apple-system, BlinkMacSystemFont, &quot;Segoe WPC&quot;, &quot;Segoe UI&quot;, Ubuntu, &quot;Droid Sans&quot;, sans-serif, &quot;PingFang SC&quot;; font-size: 10px;"><tspan xml:space="preserve" dy="1em" x="1">1×3×320×320</tspan></text><text class="edge-label" id="edge-label-edge-serving_default_input&#10;0" transform="translate(-5,239.5)" style="opacity: 1; font-family: -apple-system, BlinkMacSystemFont, &quot;Segoe WPC&quot;, &quot;Segoe UI&quot;, Ubuntu, &quot;Droid Sans&quot;, sans-serif, &quot;PingFang SC&quot;; font-size: 10px;"><tspan xml:space="preserve" dy="1em" x="1">1×3×320×320</tspan></text><text class="edge-label" id="edge-label-edge-onnx_tf_prefix_/Slice3&#10;15" transform="translate(186.01998901367188,188)" style="opacity: 1; font-family: -apple-system, BlinkMacSystemFont, &quot;Segoe WPC&quot;, &quot;Segoe UI&quot;, Ubuntu, &quot;Droid Sans&quot;, sans-serif, &quot;PingFang SC&quot;; font-size: 10px;"><tspan xml:space="preserve" dy="1em" x="1">1×1×320×320</tspan></text><text class="edge-label" id="edge-label-edge-onnx_tf_prefix_/Slice_12&#10;16" transform="translate(186.01998901367188,291)" style="opacity: 1; font-family: -apple-system, BlinkMacSystemFont, &quot;Segoe WPC&quot;, &quot;Segoe UI&quot;, Ubuntu, &quot;Droid Sans&quot;, sans-serif, &quot;PingFang SC&quot;; font-size: 10px;"><tspan xml:space="preserve" dy="1em" x="1">1×1×9×320</tspan></text><text class="edge-label" id="edge-label-edge-onnx_tf_prefix_/Slice_23&#10;17" transform="translate(186.01998901367188,394)" style="opacity: 1; font-family: -apple-system, BlinkMacSystemFont, &quot;Segoe WPC&quot;, &quot;Segoe UI&quot;, Ubuntu, &quot;Droid Sans&quot;, sans-serif, &quot;PingFang SC&quot;; font-size: 10px;"><tspan xml:space="preserve" dy="1em" x="1">1×1×9×156</tspan></text><text class="edge-label" id="edge-label-edge-onnx_tf_prefix_/Relu&#10;18" transform="translate(186.01998901367188,473)" style="opacity: 1; font-family: -apple-system, BlinkMacSystemFont, &quot;Segoe WPC&quot;, &quot;Segoe UI&quot;, Ubuntu, &quot;Droid Sans&quot;, sans-serif, &quot;PingFang SC&quot;; font-size: 10px;"><tspan xml:space="preserve" dy="1em" x="1">1×1×9×156</tspan></text><text class="edge-label" id="edge-label-edge-onnx_tf_prefix_/ScatterND2&#10;21" transform="translate(77.39999389648438,239.5)" style="opacity: 1; font-family: -apple-system, BlinkMacSystemFont, &quot;Segoe WPC&quot;, &quot;Segoe UI&quot;, Ubuntu, &quot;Droid Sans&quot;, sans-serif, &quot;PingFang SC&quot;; font-size: 10px;"><tspan xml:space="preserve" dy="1em" x="1">1×1×9×156</tspan></text><text class="edge-label" id="edge-label-edge-tfl.scatter_nd&#10;22" transform="translate(77.39999389648438,394)" style="opacity: 1; font-family: -apple-system, BlinkMacSystemFont, &quot;Segoe WPC&quot;, &quot;Segoe UI&quot;, Ubuntu, &quot;Droid Sans&quot;, sans-serif, &quot;PingFang SC&quot;; font-size: 10px;"><tspan xml:space="preserve" dy="1em" x="1">1×3×320×320</tspan></text><text class="edge-label" id="edge-label-edge-onnx_tf_prefix_/ScatterND3&#10;23" transform="translate(77.39999389648438,473)" style="opacity: 1; font-family: -apple-system, BlinkMacSystemFont, &quot;Segoe WPC&quot;, &quot;Segoe UI&quot;, Ubuntu, &quot;Droid Sans&quot;, sans-serif, &quot;PingFang SC&quot;; font-size: 10px;"><tspan xml:space="preserve" dy="1em" x="1">1×3×320×320</tspan></text><text class="edge-label" id="edge-label-edge-onnx_tf_prefix_/ScatterND4&#10;24" transform="translate(36.19999694824219,564)" style="opacity: 1; font-family: -apple-system, BlinkMacSystemFont, &quot;Segoe WPC&quot;, &quot;Segoe UI&quot;, Ubuntu, &quot;Droid Sans&quot;, sans-serif, &quot;PingFang SC&quot;; font-size: 10px;"><tspan xml:space="preserve" dy="1em" x="1">1×3×320×320</tspan></text><text class="edge-label" id="edge-label-edge-tfl.scatter_nd1&#10;25" transform="translate(186.01998901367188,564)" style="opacity: 1; font-family: -apple-system, BlinkMacSystemFont, &quot;Segoe WPC&quot;, &quot;Segoe UI&quot;, Ubuntu, &quot;Droid Sans&quot;, sans-serif, &quot;PingFang SC&quot;; font-size: 10px;"><tspan xml:space="preserve" dy="1em" x="1">1×3×320×320</tspan></text><text class="edge-label" id="edge-label-edge-StatefulPartitionedCall&#10;26" transform="translate(90.50999450683594,625)" style="opacity: 1; font-family: -apple-system, BlinkMacSystemFont, &quot;Segoe WPC&quot;, &quot;Segoe UI&quot;, Ubuntu, &quot;Droid Sans&quot;, sans-serif, &quot;PingFang SC&quot;; font-size: 10px;"><tspan xml:space="preserve" dy="1em" x="1">1×3×320×320</tspan></text></g><g id="nodes" class="nodes"><g id="input-name-serving_default_input&#10;0" class="node graph-input" transform="translate(19.134994506835938,15)" style="opacity: 1;"><g class="node-item graph-item-input" transform="translate(0,0)"><path d="M5,0h122.75a5,5 0 0 1 5,5v10a5,5 0 0 1 -5,5h-122.75a5,5 0 0 1 -5,-5v-10a5,5 0 0 1 5,-5z" style="stroke: rgb(0, 0, 0); fill: rgb(238, 238, 238); stroke-width: 0;"/><text x="6" y="13" style="font-family: -apple-system, BlinkMacSystemFont, &quot;Segoe WPC&quot;, &quot;Segoe UI&quot;, Ubuntu, &quot;Droid Sans&quot;, sans-serif, &quot;PingFang SC&quot;; font-size: 11px; text-rendering: geometricprecision;">serving_default_input
0</text><title>float32[1,3,320,320]</title></g><path class="node border" d="M5,0h122.75a5,5 0 0 1 5,5v10a5,5 0 0 1 -5,5h-122.75a5,5 0 0 1 -5,-5v-10a5,5 0 0 1 5,-5z" style="stroke: rgb(51, 51, 51); fill: none; stroke-width: 1px;"/></g><g id="node-id-0" class="node graph-node" transform="translate(143.51998901367188,111)" style="opacity: 1;"><g class="node-item node-item-type node-item-type-tensor" transform="translate(0,0)"><path d="M5,0h65a5,5 0 0 1 5,5v15a0,0 0 0 1 0,0h-75a0,0 0 0 1 0,0v-15a5,5 0 0 1 5,-5z" style="stroke: rgb(0, 0, 0); fill: rgb(89, 66, 59); stroke-width: 0;"/><text x="6" y="13" style="font-family: -apple-system, BlinkMacSystemFont, &quot;Segoe WPC&quot;, &quot;Segoe UI&quot;, Ubuntu, &quot;Droid Sans&quot;, sans-serif, &quot;PingFang SC&quot;; font-size: 11px; text-rendering: geometricprecision; fill: rgb(255, 255, 255);">StridedSlice</text><title>0</title></g><g class="node-attribute" transform="translate(0,20)"><path d="M0,0h75a0,0 0 0 1 0,0v37a5,5 0 0 1 -5,5h-65a5,5 0 0 1 -5,-5v-37a0,0 0 0 1 0,0z" style="stroke: rgb(0, 0, 0); fill: rgb(255, 255, 255); stroke-width: 0;"/><text id="initializer-onnx_tf_prefix_/Slice&#10;12" xml:space="preserve" x="6" y="12" style="font-family: -apple-system, BlinkMacSystemFont, &quot;Segoe WPC&quot;, &quot;Segoe UI&quot;, Ubuntu, &quot;Droid Sans&quot;, sans-serif, &quot;PingFang SC&quot;; font-size: 9px; font-weight: normal; text-rendering: geometricprecision;"><title>int32[4]</title><tspan style="font-weight: bold;">begin</tspan><tspan>〈4〉</tspan></text><text id="initializer-onnx_tf_prefix_/Slice1&#10;13" xml:space="preserve" x="6" y="24" style="font-family: -apple-system, BlinkMacSystemFont, &quot;Segoe WPC&quot;, &quot;Segoe UI&quot;, Ubuntu, &quot;Droid Sans&quot;, sans-serif, &quot;PingFang SC&quot;; font-size: 9px; font-weight: normal; text-rendering: geometricprecision;"><title>int32[4]</title><tspan style="font-weight: bold;">end</tspan><tspan>〈4〉</tspan></text><text id="initializer-onnx_tf_prefix_/Slice2&#10;14" xml:space="preserve" x="6" y="36" style="font-family: -apple-system, BlinkMacSystemFont, &quot;Segoe WPC&quot;, &quot;Segoe UI&quot;, Ubuntu, &quot;Droid Sans&quot;, sans-serif, &quot;PingFang SC&quot;; font-size: 9px; font-weight: normal; text-rendering: geometricprecision;"><title>int32[4]</title><tspan style="font-weight: bold;">strides</tspan><tspan>〈4〉</tspan></text><line class="node" x1="0" x2="75" y1="0" y2="0" style="stroke: rgb(51, 51, 51); fill: none; stroke-width: 1px;"/></g><path class="node border" d="M5,0h65a5,5 0 0 1 5,5v52a5,5 0 0 1 -5,5h-65a5,5 0 0 1 -5,-5v-52a5,5 0 0 1 5,-5z" style="stroke: rgb(51, 51, 51); fill: none; stroke-width: 1px;"/></g><g id="node-id-1" class="node graph-node" transform="translate(143.51998901367188,214)" style="opacity: 1;"><g class="node-item node-item-type node-item-type-tensor" transform="translate(0,0)"><path d="M5,0h65a5,5 0 0 1 5,5v15a0,0 0 0 1 0,0h-75a0,0 0 0 1 0,0v-15a5,5 0 0 1 5,-5z" style="stroke: rgb(0, 0, 0); fill: rgb(89, 66, 59); stroke-width: 0;"/><text x="6" y="13" style="font-family: -apple-system, BlinkMacSystemFont, &quot;Segoe WPC&quot;, &quot;Segoe UI&quot;, Ubuntu, &quot;Droid Sans&quot;, sans-serif, &quot;PingFang SC&quot;; font-size: 11px; text-rendering: geometricprecision; fill: rgb(255, 255, 255);">StridedSlice</text><title>1</title></g><g class="node-attribute" transform="translate(0,20)"><path d="M0,0h75a0,0 0 0 1 0,0v37a5,5 0 0 1 -5,5h-65a5,5 0 0 1 -5,-5v-37a0,0 0 0 1 0,0z" style="stroke: rgb(0, 0, 0); fill: rgb(255, 255, 255); stroke-width: 0;"/><text id="initializer-onnx_tf_prefix_/Slice_11&#10;9" xml:space="preserve" x="6" y="12" style="font-family: -apple-system, BlinkMacSystemFont, &quot;Segoe WPC&quot;, &quot;Segoe UI&quot;, Ubuntu, &quot;Droid Sans&quot;, sans-serif, &quot;PingFang SC&quot;; font-size: 9px; font-weight: normal; text-rendering: geometricprecision;"><title>int32[4]</title><tspan style="font-weight: bold;">begin</tspan><tspan>〈4〉</tspan></text><text id="initializer-onnx_tf_prefix_/Slice_1&#10;8" xml:space="preserve" x="6" y="24" style="font-family: -apple-system, BlinkMacSystemFont, &quot;Segoe WPC&quot;, &quot;Segoe UI&quot;, Ubuntu, &quot;Droid Sans&quot;, sans-serif, &quot;PingFang SC&quot;; font-size: 9px; font-weight: normal; text-rendering: geometricprecision;"><title>int32[4]</title><tspan style="font-weight: bold;">end</tspan><tspan>〈4〉</tspan></text><text id="initializer-onnx_tf_prefix_/Slice2&#10;14" xml:space="preserve" x="6" y="36" style="font-family: -apple-system, BlinkMacSystemFont, &quot;Segoe WPC&quot;, &quot;Segoe UI&quot;, Ubuntu, &quot;Droid Sans&quot;, sans-serif, &quot;PingFang SC&quot;; font-size: 9px; font-weight: normal; text-rendering: geometricprecision;"><title>int32[4]</title><tspan style="font-weight: bold;">strides</tspan><tspan>〈4〉</tspan></text><line class="node" x1="0" x2="75" y1="0" y2="0" style="stroke: rgb(51, 51, 51); fill: none; stroke-width: 1px;"/></g><path class="node border" d="M5,0h65a5,5 0 0 1 5,5v52a5,5 0 0 1 -5,5h-65a5,5 0 0 1 -5,-5v-52a5,5 0 0 1 5,-5z" style="stroke: rgb(51, 51, 51); fill: none; stroke-width: 1px;"/></g><g id="node-id-2" class="node graph-node" transform="translate(143.51998901367188,317)" style="opacity: 1;"><g class="node-item node-item-type node-item-type-tensor" transform="translate(0,0)"><path d="M5,0h65a5,5 0 0 1 5,5v15a0,0 0 0 1 0,0h-75a0,0 0 0 1 0,0v-15a5,5 0 0 1 5,-5z" style="stroke: rgb(0, 0, 0); fill: rgb(89, 66, 59); stroke-width: 0;"/><text x="6" y="13" style="font-family: -apple-system, BlinkMacSystemFont, &quot;Segoe WPC&quot;, &quot;Segoe UI&quot;, Ubuntu, &quot;Droid Sans&quot;, sans-serif, &quot;PingFang SC&quot;; font-size: 11px; text-rendering: geometricprecision; fill: rgb(255, 255, 255);">StridedSlice</text><title>2</title></g><g class="node-attribute" transform="translate(0,20)"><path d="M0,0h75a0,0 0 0 1 0,0v37a5,5 0 0 1 -5,5h-65a5,5 0 0 1 -5,-5v-37a0,0 0 0 1 0,0z" style="stroke: rgb(0, 0, 0); fill: rgb(255, 255, 255); stroke-width: 0;"/><text id="initializer-onnx_tf_prefix_/Slice_22&#10;7" xml:space="preserve" x="6" y="12" style="font-family: -apple-system, BlinkMacSystemFont, &quot;Segoe WPC&quot;, &quot;Segoe UI&quot;, Ubuntu, &quot;Droid Sans&quot;, sans-serif, &quot;PingFang SC&quot;; font-size: 9px; font-weight: normal; text-rendering: geometricprecision;"><title>int32[4]</title><tspan style="font-weight: bold;">begin</tspan><tspan>〈4〉</tspan></text><text id="initializer-onnx_tf_prefix_/Slice_21&#10;6" xml:space="preserve" x="6" y="24" style="font-family: -apple-system, BlinkMacSystemFont, &quot;Segoe WPC&quot;, &quot;Segoe UI&quot;, Ubuntu, &quot;Droid Sans&quot;, sans-serif, &quot;PingFang SC&quot;; font-size: 9px; font-weight: normal; text-rendering: geometricprecision;"><title>int32[4]</title><tspan style="font-weight: bold;">end</tspan><tspan>〈4〉</tspan></text><text id="initializer-onnx_tf_prefix_/Slice_2&#10;5" xml:space="preserve" x="6" y="36" style="font-family: -apple-system, BlinkMacSystemFont, &quot;Segoe WPC&quot;, &quot;Segoe UI&quot;, Ubuntu, &quot;Droid Sans&quot;, sans-serif, &quot;PingFang SC&quot;; font-size: 9px; font-weight: normal; text-rendering: geometricprecision;"><title>int32[4]</title><tspan style="font-weight: bold;">strides</tspan><tspan>〈4〉</tspan></text><line class="node" x1="0" x2="75" y1="0" y2="0" style="stroke: rgb(51, 51, 51); fill: none; stroke-width: 1px;"/></g><path class="node border" d="M5,0h65a5,5 0 0 1 5,5v52a5,5 0 0 1 -5,5h-65a5,5 0 0 1 -5,-5v-52a5,5 0 0 1 5,-5z" style="stroke: rgb(51, 51, 51); fill: none; stroke-width: 1px;"/></g><g id="node-id-3" class="node graph-node" transform="translate(162.82467651367188,429)" style="opacity: 1;"><g class="node-item node-item-type node-item-type-activation" transform="translate(0,0)"><path d="M5,0h26.390625a5,5 0 0 1 5,5v10a5,5 0 0 1 -5,5h-26.390625a5,5 0 0 1 -5,-5v-10a5,5 0 0 1 5,-5z" style="stroke: rgb(0, 0, 0); fill: rgb(112, 41, 33); stroke-width: 0;"/><text x="6" y="13" style="font-family: -apple-system, BlinkMacSystemFont, &quot;Segoe WPC&quot;, &quot;Segoe UI&quot;, Ubuntu, &quot;Droid Sans&quot;, sans-serif, &quot;PingFang SC&quot;; font-size: 11px; text-rendering: geometricprecision; fill: rgb(255, 255, 255);">Relu</text><title>3</title></g><path class="node border" d="M5,0h26.390625a5,5 0 0 1 5,5v10a5,5 0 0 1 -5,5h-26.390625a5,5 0 0 1 -5,-5v-10a5,5 0 0 1 5,-5z" style="stroke: rgb(51, 51, 51); fill: none; stroke-width: 1px;"/></g><g id="node-id-4" class="node graph-node" transform="translate(171.88499450683594,0)" style="opacity: 1;"><g class="node-item node-item-type" transform="translate(0,0)"><path d="M5,0h65a5,5 0 0 1 5,5v15a0,0 0 0 1 0,0h-75a0,0 0 0 1 0,0v-15a5,5 0 0 1 5,-5z" style="stroke: rgb(0, 0, 0); fill: rgb(0, 0, 0); stroke-width: 0;"/><text x="6" y="13" style="font-family: -apple-system, BlinkMacSystemFont, &quot;Segoe WPC&quot;, &quot;Segoe UI&quot;, Ubuntu, &quot;Droid Sans&quot;, sans-serif, &quot;PingFang SC&quot;; font-size: 11px; text-rendering: geometricprecision; fill: rgb(255, 255, 255);">While</text><title>4</title></g><g class="node-attribute" transform="translate(0,20)"><path d="M0,0h75a0,0 0 0 1 0,0v25a5,5 0 0 1 -5,5h-65a5,5 0 0 1 -5,-5v-25a0,0 0 0 1 0,0z" style="stroke: rgb(0, 0, 0); fill: rgb(255, 255, 255); stroke-width: 0;"/><text id="initializer-Const_14&#10;10" xml:space="preserve" x="6" y="12" style="font-family: -apple-system, BlinkMacSystemFont, &quot;Segoe WPC&quot;, &quot;Segoe UI&quot;, Ubuntu, &quot;Droid Sans&quot;, sans-serif, &quot;PingFang SC&quot;; font-size: 9px; font-weight: normal; text-rendering: geometricprecision;"><title>int64</title><tspan>1</tspan><tspan> = 0</tspan></text><text id="initializer-Const_15&#10;11" xml:space="preserve" x="6" y="24" style="font-family: -apple-system, BlinkMacSystemFont, &quot;Segoe WPC&quot;, &quot;Segoe UI&quot;, Ubuntu, &quot;Droid Sans&quot;, sans-serif, &quot;PingFang SC&quot;; font-size: 9px; font-weight: normal; text-rendering: geometricprecision;"><title>boolean</title><tspan>2</tspan><tspan> = true</tspan></text><line class="node" x1="0" x2="75" y1="0" y2="0" style="stroke: rgb(51, 51, 51); fill: none; stroke-width: 1px;"/></g><path class="node border" d="M5,0h65a5,5 0 0 1 5,5v40a5,5 0 0 1 -5,5h-65a5,5 0 0 1 -5,-5v-40a5,5 0 0 1 5,-5z" style="stroke: rgb(51, 51, 51); fill: none; stroke-width: 1px;"/></g><g id="node-id-5" class="node graph-node" transform="translate(34.235931396484375,117)" style="opacity: 1;"><g class="node-item node-item-type" transform="translate(0,0)"><path d="M5,0h66.328125a5,5 0 0 1 5,5v15a0,0 0 0 1 0,0h-76.328125a0,0 0 0 1 0,0v-15a5,5 0 0 1 5,-5z" style="stroke: rgb(0, 0, 0); fill: rgb(0, 0, 0); stroke-width: 0;"/><text x="6" y="13" style="font-family: -apple-system, BlinkMacSystemFont, &quot;Segoe WPC&quot;, &quot;Segoe UI&quot;, Ubuntu, &quot;Droid Sans&quot;, sans-serif, &quot;PingFang SC&quot;; font-size: 11px; text-rendering: geometricprecision; fill: rgb(255, 255, 255);">BroadcastTo</text><title>5</title></g><g class="node-attribute" transform="translate(0,20)"><path d="M0,0h76.328125a0,0 0 0 1 0,0v25a5,5 0 0 1 -5,5h-66.328125a5,5 0 0 1 -5,-5v-25a0,0 0 0 1 0,0z" style="stroke: rgb(0, 0, 0); fill: rgb(255, 255, 255); stroke-width: 0;"/><text id="initializer-onnx_tf_prefix_/ScatterND1&#10;4" xml:space="preserve" x="6" y="12" style="font-family: -apple-system, BlinkMacSystemFont, &quot;Segoe WPC&quot;, &quot;Segoe UI&quot;, Ubuntu, &quot;Droid Sans&quot;, sans-serif, &quot;PingFang SC&quot;; font-size: 9px; font-weight: normal; text-rendering: geometricprecision;"><title>float32</title><tspan>1</tspan><tspan> = 1</tspan></text><text id="initializer-onnx_tf_prefix_/ScatterND&#10;3" xml:space="preserve" x="6" y="24" style="font-family: -apple-system, BlinkMacSystemFont, &quot;Segoe WPC&quot;, &quot;Segoe UI&quot;, Ubuntu, &quot;Droid Sans&quot;, sans-serif, &quot;PingFang SC&quot;; font-size: 9px; font-weight: normal; text-rendering: geometricprecision;"><title>int64[4]</title><tspan style="font-weight: bold;">2</tspan><tspan>〈4〉</tspan></text><line class="node" x1="0" x2="76.328125" y1="0" y2="0" style="stroke: rgb(51, 51, 51); fill: none; stroke-width: 1px;"/></g><path class="node border" d="M5,0h66.328125a5,5 0 0 1 5,5v40a5,5 0 0 1 -5,5h-66.328125a5,5 0 0 1 -5,-5v-40a5,5 0 0 1 5,-5z" style="stroke: rgb(51, 51, 51); fill: none; stroke-width: 1px;"/></g><g id="node-id-6" class="node graph-node" transform="translate(26.915618896484375,323)" style="opacity: 1;"><g class="node-item node-item-type" transform="translate(0,0)"><path d="M5,0h80.96875a5,5 0 0 1 5,5v15a0,0 0 0 1 0,0h-90.96875a0,0 0 0 1 0,0v-15a5,5 0 0 1 5,-5z" style="stroke: rgb(0, 0, 0); fill: rgb(0, 0, 0); stroke-width: 0;"/><text x="6" y="13" style="font-family: -apple-system, BlinkMacSystemFont, &quot;Segoe WPC&quot;, &quot;Segoe UI&quot;, Ubuntu, &quot;Droid Sans&quot;, sans-serif, &quot;PingFang SC&quot;; font-size: 11px; text-rendering: geometricprecision; fill: rgb(255, 255, 255);">ScatterNd</text><title>6</title></g><g class="node-attribute" transform="translate(0,20)"><path d="M0,0h90.96875a0,0 0 0 1 0,0v25a5,5 0 0 1 -5,5h-80.96875a5,5 0 0 1 -5,-5v-25a0,0 0 0 1 0,0z" style="stroke: rgb(0, 0, 0); fill: rgb(255, 255, 255); stroke-width: 0;"/><text id="initializer-arith.constant&#10;1" xml:space="preserve" x="6" y="12" style="font-family: -apple-system, BlinkMacSystemFont, &quot;Segoe WPC&quot;, &quot;Segoe UI&quot;, Ubuntu, &quot;Droid Sans&quot;, sans-serif, &quot;PingFang SC&quot;; font-size: 9px; font-weight: normal; text-rendering: geometricprecision;"><title>int32[1,1,9,156,4]</title><tspan style="font-weight: bold;">1</tspan><tspan>〈1×1×9×156×4〉</tspan></text><text id="initializer-arith.constant1&#10;2" xml:space="preserve" x="6" y="24" style="font-family: -apple-system, BlinkMacSystemFont, &quot;Segoe WPC&quot;, &quot;Segoe UI&quot;, Ubuntu, &quot;Droid Sans&quot;, sans-serif, &quot;PingFang SC&quot;; font-size: 9px; font-weight: normal; text-rendering: geometricprecision;"><title>int32[4]</title><tspan style="font-weight: bold;">3</tspan><tspan>〈4〉</tspan></text><line class="node" x1="0" x2="90.96875" y1="0" y2="0" style="stroke: rgb(51, 51, 51); fill: none; stroke-width: 1px;"/></g><path class="node border" d="M5,0h80.96875a5,5 0 0 1 5,5v40a5,5 0 0 1 -5,5h-80.96875a5,5 0 0 1 -5,-5v-40a5,5 0 0 1 5,-5z" style="stroke: rgb(51, 51, 51); fill: none; stroke-width: 1px;"/></g><g id="node-id-7" class="node graph-node" transform="translate(34.899993896484375,420)" style="opacity: 1;"><g class="node-item node-item-type" transform="translate(0,0)"><path d="M5,0h65a5,5 0 0 1 5,5v15a0,0 0 0 1 0,0h-75a0,0 0 0 1 0,0v-15a5,5 0 0 1 5,-5z" style="stroke: rgb(0, 0, 0); fill: rgb(0, 0, 0); stroke-width: 0;"/><text x="6" y="13" style="font-family: -apple-system, BlinkMacSystemFont, &quot;Segoe WPC&quot;, &quot;Segoe UI&quot;, Ubuntu, &quot;Droid Sans&quot;, sans-serif, &quot;PingFang SC&quot;; font-size: 11px; text-rendering: geometricprecision; fill: rgb(255, 255, 255);">Sub</text><title>7</title></g><g class="node-attribute" transform="translate(0,20)"><path d="M0,0h75a0,0 0 0 1 0,0v13a5,5 0 0 1 -5,5h-65a5,5 0 0 1 -5,-5v-13a0,0 0 0 1 0,0z" style="stroke: rgb(0, 0, 0); fill: rgb(255, 255, 255); stroke-width: 0;"/><text id="initializer-onnx_tf_prefix_/ScatterND1&#10;4" xml:space="preserve" x="6" y="12" style="font-family: -apple-system, BlinkMacSystemFont, &quot;Segoe WPC&quot;, &quot;Segoe UI&quot;, Ubuntu, &quot;Droid Sans&quot;, sans-serif, &quot;PingFang SC&quot;; font-size: 9px; font-weight: normal; text-rendering: geometricprecision;"><title>float32</title><tspan>A</tspan><tspan> = 1</tspan></text><line class="node" x1="0" x2="75" y1="0" y2="0" style="stroke: rgb(51, 51, 51); fill: none; stroke-width: 1px;"/></g><path class="node border" d="M5,0h65a5,5 0 0 1 5,5v28a5,5 0 0 1 -5,5h-65a5,5 0 0 1 -5,-5v-28a5,5 0 0 1 5,-5z" style="stroke: rgb(51, 51, 51); fill: none; stroke-width: 1px;"/></g><g id="node-id-8" class="node graph-node" transform="translate(14.746871948242188,514)" style="opacity: 1;"><g class="node-item node-item-type" transform="translate(0,0)"><path d="M5,0h22.90625a5,5 0 0 1 5,5v10a5,5 0 0 1 -5,5h-22.90625a5,5 0 0 1 -5,-5v-10a5,5 0 0 1 5,-5z" style="stroke: rgb(0, 0, 0); fill: rgb(0, 0, 0); stroke-width: 0;"/><text x="6" y="13" style="font-family: -apple-system, BlinkMacSystemFont, &quot;Segoe WPC&quot;, &quot;Segoe UI&quot;, Ubuntu, &quot;Droid Sans&quot;, sans-serif, &quot;PingFang SC&quot;; font-size: 11px; text-rendering: geometricprecision; fill: rgb(255, 255, 255);">Mul</text><title>8</title></g><path class="node border" d="M5,0h22.90625a5,5 0 0 1 5,5v10a5,5 0 0 1 -5,5h-22.90625a5,5 0 0 1 -5,-5v-10a5,5 0 0 1 5,-5z" style="stroke: rgb(51, 51, 51); fill: none; stroke-width: 1px;"/></g><g id="node-id-9" class="node graph-node" transform="translate(135.53561401367188,499)" style="opacity: 1;"><g class="node-item node-item-type" transform="translate(0,0)"><path d="M5,0h80.96875a5,5 0 0 1 5,5v15a0,0 0 0 1 0,0h-90.96875a0,0 0 0 1 0,0v-15a5,5 0 0 1 5,-5z" style="stroke: rgb(0, 0, 0); fill: rgb(0, 0, 0); stroke-width: 0;"/><text x="6" y="13" style="font-family: -apple-system, BlinkMacSystemFont, &quot;Segoe WPC&quot;, &quot;Segoe UI&quot;, Ubuntu, &quot;Droid Sans&quot;, sans-serif, &quot;PingFang SC&quot;; font-size: 11px; text-rendering: geometricprecision; fill: rgb(255, 255, 255);">ScatterNd</text><title>9</title></g><g class="node-attribute" transform="translate(0,20)"><path d="M0,0h90.96875a0,0 0 0 1 0,0v25a5,5 0 0 1 -5,5h-80.96875a5,5 0 0 1 -5,-5v-25a0,0 0 0 1 0,0z" style="stroke: rgb(0, 0, 0); fill: rgb(255, 255, 255); stroke-width: 0;"/><text id="initializer-arith.constant&#10;1" xml:space="preserve" x="6" y="12" style="font-family: -apple-system, BlinkMacSystemFont, &quot;Segoe WPC&quot;, &quot;Segoe UI&quot;, Ubuntu, &quot;Droid Sans&quot;, sans-serif, &quot;PingFang SC&quot;; font-size: 9px; font-weight: normal; text-rendering: geometricprecision;"><title>int32[1,1,9,156,4]</title><tspan style="font-weight: bold;">1</tspan><tspan>〈1×1×9×156×4〉</tspan></text><text id="initializer-arith.constant1&#10;2" xml:space="preserve" x="6" y="24" style="font-family: -apple-system, BlinkMacSystemFont, &quot;Segoe WPC&quot;, &quot;Segoe UI&quot;, Ubuntu, &quot;Droid Sans&quot;, sans-serif, &quot;PingFang SC&quot;; font-size: 9px; font-weight: normal; text-rendering: geometricprecision;"><title>int32[4]</title><tspan style="font-weight: bold;">3</tspan><tspan>〈4〉</tspan></text><line class="node" x1="0" x2="90.96875" y1="0" y2="0" style="stroke: rgb(51, 51, 51); fill: none; stroke-width: 1px;"/></g><path class="node border" d="M5,0h80.96875a5,5 0 0 1 5,5v40a5,5 0 0 1 -5,5h-80.96875a5,5 0 0 1 -5,-5v-40a5,5 0 0 1 5,-5z" style="stroke: rgb(51, 51, 51); fill: none; stroke-width: 1px;"/></g><g id="node-id-10" class="node graph-node" transform="translate(68.45530700683594,590)" style="opacity: 1;"><g class="node-item node-item-type" transform="translate(0,0)"><path d="M5,0h24.109375a5,5 0 0 1 5,5v10a5,5 0 0 1 -5,5h-24.109375a5,5 0 0 1 -5,-5v-10a5,5 0 0 1 5,-5z" style="stroke: rgb(0, 0, 0); fill: rgb(0, 0, 0); stroke-width: 0;"/><text x="6" y="13" style="font-family: -apple-system, BlinkMacSystemFont, &quot;Segoe WPC&quot;, &quot;Segoe UI&quot;, Ubuntu, &quot;Droid Sans&quot;, sans-serif, &quot;PingFang SC&quot;; font-size: 11px; text-rendering: geometricprecision; fill: rgb(255, 255, 255);">Add</text><title>10</title></g><path class="node border" d="M5,0h24.109375a5,5 0 0 1 5,5v10a5,5 0 0 1 -5,5h-24.109375a5,5 0 0 1 -5,-5v-10a5,5 0 0 1 5,-5z" style="stroke: rgb(51, 51, 51); fill: none; stroke-width: 1px;"/></g><g class="node" transform="translate(13.572494506835938,651)" style="opacity: 1;"><g class="node-item graph-item-output" transform="translate(0,0)"><path d="M5,0h133.875a5,5 0 0 1 5,5v10a5,5 0 0 1 -5,5h-133.875a5,5 0 0 1 -5,-5v-10a5,5 0 0 1 5,-5z" style="stroke: rgb(0, 0, 0); fill: rgb(238, 238, 238); stroke-width: 0;"/><text x="6" y="13" style="font-family: -apple-system, BlinkMacSystemFont, &quot;Segoe WPC&quot;, &quot;Segoe UI&quot;, Ubuntu, &quot;Droid Sans&quot;, sans-serif, &quot;PingFang SC&quot;; font-size: 11px; text-rendering: geometricprecision;">StatefulPartitionedCall
26</text><title>float32[1,3,320,320]</title></g><path class="node border" d="M5,0h133.875a5,5 0 0 1 5,5v10a5,5 0 0 1 -5,5h-133.875a5,5 0 0 1 -5,-5v-10a5,5 0 0 1 5,-5z" style="stroke: rgb(51, 51, 51); fill: none; stroke-width: 1px;"/></g></g></g></svg>